<?xml version="1.0" encoding="UTF-8"?>
<svg version="1.1" xmlns="http://www.w3.org/2000/svg" width="500" height="500">
<path d="M0 0 C165 0 330 0 500 0 C500 165 500 330 500 500 C335 500 170 500 0 500 C0 335 0 170 0 0 Z " fill="#000000" transform="translate(0,0)"/>
<path d="M0 0 C0 72.6 0 145.2 0 220 C-104.60606061 220 -104.60606061 220 -138 191 C-134.40966628 184.64787112 -134.40966628 184.64787112 -132.609375 181.80078125 C-114.13177193 152.38249215 -110.15447489 112.8398711 -117.03125 79.10546875 C-117.3444172 77.73471523 -117.66722969 76.36612695 -118 75 C-118.16628906 74.31631348 -118.33257812 73.63262695 -118.50390625 72.92822266 C-122.36476264 57.81011 -129.28876495 44.19069932 -139 32 C-133.9859288 20.52841286 -118.71960012 13.60236778 -107.64453125 9.203125 C-72.88799191 -3.8173808 -37.30252964 0 0 0 Z " fill="#010101" transform="translate(400,123)"/>
<path d="M0 0 C80.42824007 0 80.42824007 0 99.0625 6.1875 C100.00311279 6.48793213 100.94372559 6.78836426 101.9128418 7.09790039 C113.36960999 10.90897938 130.05095774 17.23575179 136.26171875 28.234375 C136.50535156 28.81703125 136.74898437 29.3996875 137 30 C136.175 30.99 135.35 31.98 134.5 33 C113.96539121 60.47656873 110.65497852 97.96094612 114.77587891 131.03100586 C117.8684566 151.24089295 125.1574435 171.68483111 139 187 C123.2150281 207.20954736 96.25602045 214.41571607 72 218 C48.09625785 220.17306747 24.0023147 219 0 219 C0 146.73 0 74.46 0 0 Z " fill="#000000" transform="translate(110,126)"/>
<path d="M0 0 C0 78.21 0 156.42 0 237 C-80.95182577 237 -80.95182577 237 -99 233.3125 C-99.81557373 233.14588867 -100.63114746 232.97927734 -101.47143555 232.80761719 C-119.22646373 228.9375159 -137.4147028 221.73682594 -150.94921875 209.37109375 C-152.87178041 207.79683478 -152.87178041 207.79683478 -155.0390625 208.0703125 C-157.41798223 209.19816688 -158.83164347 210.56658581 -160.6875 212.4375 C-199.83326469 248.24076918 -265.06046933 240 -311 240 C-311 161.46 -311 82.92 -311 2 C-190.90957447 2 -190.90957447 2 -157 32 C-153.79836227 30.59042941 -151.72554173 28.88828631 -149.25 26.4375 C-136.79103558 15.16510362 -119.87014766 8.21994214 -103.75 4.25 C-102.95376221 4.05116211 -102.15752441 3.85232422 -101.3371582 3.64746094 C-68.85860984 -3.8153408 -31.36838176 0 0 0 Z M-114 17 C-115.05316406 17.38027344 -116.10632813 17.76054687 -117.19140625 18.15234375 C-129.40686392 22.88244926 -139.64961974 29.88179622 -149 39 C-147.61625503 43.03592283 -145.68661102 45.71471508 -143 49 C-134.81459061 61.88835832 -129.63192003 74.90829673 -127 90 C-126.82936035 90.91612061 -126.6587207 91.83224121 -126.48291016 92.77612305 C-124.97759676 101.47148227 -124.67869226 110.01429218 -124.75 118.8125 C-124.75376648 119.51887604 -124.75753296 120.22525208 -124.76141357 120.95303345 C-124.9351891 148.74886109 -130.42203192 176.64302185 -148 199 C-124.56100498 223.9039322 -89.14240224 227.21431099 -57 229 C-41.49 229 -25.98 229 -10 229 C-10 156.4 -10 83.8 -10 9 C-62.80062896 6.83319646 -62.80062896 6.83319646 -114 17 Z M-300 12 C-300 84.27 -300 156.54 -300 231 C-224.57482297 233.88362151 -224.57482297 233.88362151 -161 200 C-161.35191406 199.56171875 -161.70382813 199.1234375 -162.06640625 198.671875 C-171.68474172 186.31620646 -177.38603681 173.00793862 -181.6875 158.0625 C-181.89004395 157.3720459 -182.09258789 156.6815918 -182.30126953 155.97021484 C-185.59638218 144.02371387 -186.39234125 131.90569933 -186.375 119.5625 C-186.37412384 118.87056549 -186.37324768 118.17863098 -186.37234497 117.46572876 C-186.26124222 90.65152246 -180.56770387 63.11240687 -163 42 C-167.16559911 32.03782646 -180.47984509 26.04302749 -190 22 C-193.60900184 20.60251892 -197.25122721 19.36489711 -200.9375 18.1875 C-201.77434326 17.90962646 -202.61118652 17.63175293 -203.47338867 17.34545898 C-233.88017566 8.23700106 -269.8771068 12 -300 12 Z " fill="#F0F0F0" transform="translate(410,114)"/>
<path d="M0 0 C0.66 0 1.32 0 2 0 C22.8319154 27.03982618 24.71475761 62.6110731 21.68359375 95.42529297 C20.90245054 101.08384129 19.60909894 106.52533389 18 112 C17.82339844 112.65967773 17.64679688 113.31935547 17.46484375 113.99902344 C14.60771244 124.62861012 9.64762346 133.636511 4 143 C3.01 143 2.02 143 1 143 C-8.29759038 132.68670647 -12.82384303 118.23688004 -16 105 C-16.24991699 103.95972656 -16.24991699 103.95972656 -16.50488281 102.8984375 C-24.0478661 69.54064806 -19.53564084 33.78490955 -3 4 C-1.3828125 1.54296875 -1.3828125 1.54296875 0 0 Z " fill="#020202" transform="translate(253,162)"/>
<path d="M0 0 C14.55882353 0 14.55882353 0 20.4375 5.125 C22.62318104 9.14665311 22.66962234 12.51679675 22 17 C20.23861438 21.17170279 17.75642341 23.51807739 14 26 C9.27267379 26.52005789 4.77279398 26.1784222 0 26 C0 17.42 0 8.84 0 0 Z " fill="#020202" transform="translate(327,364)"/>
<path d="M0 0 C3.00225627 2.33508821 5.00218341 4.27767791 5.6484375 8.1171875 C5.59918792 13.3868927 5.3176265 17.25811834 2.25 21.75 C-1.51970371 25.15990553 -4.4028742 25.31065378 -9.3359375 25.1796875 C-13.00566441 24.52649986 -14.59144922 22.67448816 -16.75 19.75 C-18.72338848 15.80322303 -18.19290148 11.05160477 -17.75 6.75 C-16.12795062 3.4479709 -14.84120239 1.57780871 -11.9375 -0.625 C-7.65437443 -1.84875016 -4.06770435 -1.84895652 0 0 Z " fill="#040404" transform="translate(261.75,365.25)"/>
<path d="M0 0 C13.90342679 0 13.90342679 0 19 4 C21.71890069 7.54281 22.2116493 10.21939793 21.9375 14.5625 C21.30128656 18.67022589 20.07943022 21.09653723 17 24 C13 26 13 26 0 26 C0 17.42 0 8.84 0 0 Z " fill="#020202" transform="translate(100,364)"/>
<path d="M0 0 C1.32 0 2.64 0 4 0 C4.07075136 4.03282724 4.04682862 7.6930124 3.4375 11.6875 C3.02120939 14.83941461 3.17138249 16.96173578 4 20 C5.98 20.33 7.96 20.66 10 21 C10 21.99 10 22.98 10 24 C7.525 23.01 7.525 23.01 5 22 C5.00444122 22.78038635 5.00888245 23.56077271 5.01345825 24.36480713 C5.05354353 31.72162594 5.08398873 39.07839174 5.10362434 46.43529129 C5.11405858 50.21748771 5.12821116 53.99959383 5.15087891 57.78173828 C5.17262021 61.43217608 5.18457134 65.08252705 5.18975449 68.7330246 C5.19344794 70.12527584 5.20066034 71.51752238 5.21146011 72.90973663 C5.22599126 74.86067567 5.22681706 76.81170218 5.22705078 78.76269531 C5.231492 79.8730011 5.23593323 80.98330688 5.24050903 82.1272583 C5.0035883 84.95713987 4.46836296 86.60165414 3 89 C2.34 89 1.68 89 1 89 C-0.10135545 85.69593365 -0.12036063 83.26356307 -0.11352539 79.78442383 C-0.11341209 77.86277153 -0.11341209 77.86277153 -0.11329651 75.90229797 C-0.10818987 74.50387534 -0.10297387 73.1054531 -0.09765625 71.70703125 C-0.09579089 70.27642364 -0.09436754 68.84581539 -0.09336853 67.41520691 C-0.08955267 63.65213249 -0.07973032 59.88909675 -0.06866455 56.1260376 C-0.05843043 52.28520226 -0.05386662 48.44436067 -0.04882812 44.60351562 C-0.03810722 37.0689928 -0.02104196 29.53450182 0 22 C-1.98 22.66 -3.96 23.32 -6 24 C-5.505 22.515 -5.505 22.515 -5 21 C-3.02 20.34 -1.04 19.68 1 19 C0.67 12.73 0.34 6.46 0 0 Z " fill="#BBBBBB" transform="translate(253,191)"/>
<path d="M0 0 C14.55882353 0 14.55882353 0 20.4375 5.125 C22.62318104 9.14665311 22.66962234 12.51679675 22 17 C20.23861438 21.17170279 17.75642341 23.51807739 14 26 C9.27267379 26.52005789 4.77279398 26.1784222 0 26 C0 17.42 0 8.84 0 0 Z M4 3 C4 9.6 4 16.2 4 23 C12.40371521 23.67082039 12.40371521 23.67082039 17 21 C19.32124376 17.98238312 19.41188886 14.71020256 19.328125 10.96875 C18.80947233 7.85683396 17.21445226 6.14932131 15 4 C12.03103721 2.32917961 12.03103721 2.32917961 4 3 Z " fill="#B4B4B4" transform="translate(327,364)"/>
<path d="M0 0 C1.85253906 0.18383789 1.85253906 0.18383789 4 1 C5.28027344 3.19311523 5.28027344 3.19311523 6.359375 6.05859375 C6.75253906 7.08404297 7.14570313 8.10949219 7.55078125 9.16601562 C7.94652344 10.24560547 8.34226563 11.32519531 8.75 12.4375 C9.16121094 13.51322266 9.57242188 14.58894531 9.99609375 15.69726562 C13 23.64614047 13 23.64614047 13 26 C12.01 26 11.02 26 10 26 C9.34 23.69 8.68 21.38 8 19 C3.71 19 -0.58 19 -5 19 C-5.33 20.65 -5.66 22.3 -6 24 C-6.33 24.66 -6.66 25.32 -7 26 C-7.99 26 -8.98 26 -10 26 C-7.24892128 17.09945121 -3.59701637 8.58356509 0 0 Z " fill="#E3E3E3" transform="translate(190,364)"/>
<path d="M0 0 C13.90342679 0 13.90342679 0 19 4 C21.71890069 7.54281 22.2116493 10.21939793 21.9375 14.5625 C21.30128656 18.67022589 20.07943022 21.09653723 17 24 C13 26 13 26 0 26 C0 17.42 0 8.84 0 0 Z M3 3 C3 9.6 3 16.2 3 23 C12.17823595 23.85749293 12.17823595 23.85749293 16.125 21.125 C18.75014558 16.74975736 18.93459452 12.9845041 18 8 C16.11484777 5.42362529 14.80665143 4.40332572 12 3 C9.03 3 6.06 3 3 3 Z " fill="#E1E1E1" transform="translate(100,364)"/>
<path d="M0 0 C3.00225627 2.33508821 5.00218341 4.27767791 5.6484375 8.1171875 C5.59918792 13.3868927 5.3176265 17.25811834 2.25 21.75 C-1.51970371 25.15990553 -4.4028742 25.31065378 -9.3359375 25.1796875 C-13.00566441 24.52649986 -14.59144922 22.67448816 -16.75 19.75 C-18.72338848 15.80322303 -18.19290148 11.05160477 -17.75 6.75 C-16.12795062 3.4479709 -14.84120239 1.57780871 -11.9375 -0.625 C-7.65437443 -1.84875016 -4.06770435 -1.84895652 0 0 Z M-12.6875 3.5625 C-15.69909607 8.21678484 -15.6130716 12.35580248 -14.75 17.75 C-13.53829159 20.62905095 -13.53829159 20.62905095 -10.75 21.75 C-7.67600684 22.21609282 -4.80456726 22.3744143 -1.75 21.75 C1.13951922 19.49235742 2.04460222 17.31689164 2.5234375 13.6640625 C2.71313265 9.3886257 2.642151 7.33228482 0.1875 3.6875 C-4.56005876 0.55613146 -7.8592519 0.5833682 -12.6875 3.5625 Z " fill="#DADADA" transform="translate(261.75,365.25)"/>
<path d="M0 0 C0.99 0 1.98 0 3 0 C3.33 3.63 3.66 7.26 4 11 C4.75925781 10.2059375 5.51851562 9.411875 6.30078125 8.59375 C7.30428615 7.56210945 8.30821452 6.53088069 9.3125 5.5 C10.06176758 4.71302734 10.06176758 4.71302734 10.82617188 3.91015625 C12.16089504 2.5489154 13.5769384 1.26860484 15 0 C15.99 0 16.98 0 18 0 C18 0.66 18 1.32 18 2 C16.3203125 3.65625 16.3203125 3.65625 14.125 5.5 C12.00964496 7.28933258 9.95980876 9.04019124 8 11 C8.24937439 15.48873893 10.19420372 18.57069344 13 22 C15.62766389 22.96219702 15.62766389 22.96219702 18 23 C18 23.99 18 24.98 18 26 C15.234375 26.30859375 15.234375 26.30859375 12 26 C9.953125 23.84765625 9.953125 23.84765625 8.25 21.0625 C6.199302 17.41149014 6.199302 17.41149014 3 15 C3 18.63 3 22.26 3 26 C2.01 26 1.02 26 0 26 C0 17.42 0 8.84 0 0 Z " fill="#DADADA" transform="translate(215,364)"/>
<path d="M0 0 C1.32 0 2.64 0 4 0 C4.07075136 4.03282724 4.04682862 7.6930124 3.4375 11.6875 C3.02120939 14.83941461 3.17138249 16.96173578 4 20 C5.98 20.33 7.96 20.66 10 21 C10 21.99 10 22.98 10 24 C7.525 23.01 7.525 23.01 5 22 C5 42.79 5 63.58 5 85 C4.67 85 4.34 85 4 85 C4 65.86 4 46.72 4 27 C3.01 27 2.02 27 1 27 C1 25.02 1 23.04 1 21 C0.21625 21.495 -0.5675 21.99 -1.375 22.5 C-4 24 -4 24 -6 24 C-5.505 22.515 -5.505 22.515 -5 21 C-3.02 20.34 -1.04 19.68 1 19 C0.67 12.73 0.34 6.46 0 0 Z " fill="#656565" transform="translate(253,191)"/>
<path d="M0 0 C1.89355469 0.23413086 1.89355469 0.23413086 4 1 C5.00488281 2.85766602 5.00488281 2.85766602 5.703125 5.25390625 C5.9609375 6.10791016 6.21875 6.96191406 6.484375 7.84179688 C6.73703125 8.73962891 6.9896875 9.63746094 7.25 10.5625 C7.518125 11.46419922 7.78625 12.36589844 8.0625 13.29492188 C8.72354938 15.52596354 9.36853204 17.76044003 10 20 C11.62140804 17.56788794 12.48483642 15.92372181 13.40234375 13.2421875 C13.65306641 12.53449219 13.90378906 11.82679688 14.16210938 11.09765625 C14.68104649 9.61012368 15.19402958 8.12050123 15.70117188 6.62890625 C16.38328145 4.72039505 17.1843782 2.85538394 18 1 C18.99 0.67 19.98 0.34 21 0 C19.92356226 6.02805136 18.21230646 11.73244729 16.1875 17.5 C15.95144043 18.21865234 15.71538086 18.93730469 15.47216797 19.67773438 C14.73046875 21.71875 14.73046875 21.71875 13 25 C10.30078125 25.96875 10.30078125 25.96875 8 26 C0 4.76595745 0 4.76595745 0 0 Z " fill="#DBDBDB" transform="translate(278,364)"/>
<path d="M0 0 C1.90722656 0.27026367 1.90722656 0.27026367 4 1 C5.13765215 3.81718597 5.98763753 6.39490527 6.75 9.3125 C6.97042969 10.08529297 7.19085938 10.85808594 7.41796875 11.65429688 C8.43385328 15.32346989 9 18.13562133 9 22 C9.66 22 10.32 22 11 22 C11.10183594 21.18273437 11.20367187 20.36546875 11.30859375 19.5234375 C12.1293064 15.34104875 13.51904991 11.5856863 15.0625 7.625 C15.34416016 6.88894531 15.62582031 6.15289062 15.91601562 5.39453125 C16.60566618 3.5944264 17.30213932 1.7969379 18 0 C18.99 0 19.98 0 21 0 C20.37658609 3.5382203 19.44678155 6.73293028 18.15234375 10.08203125 C17.79462891 11.01337891 17.43691406 11.94472656 17.06835938 12.90429688 C16.69517578 13.86400391 16.32199219 14.82371094 15.9375 15.8125 C15.56044922 16.79154297 15.18339844 17.77058594 14.79492188 18.77929688 C13.86684405 21.1876001 12.93509884 23.59441614 12 26 C10.68 26 9.36 26 8 26 C4.16500467 17.75476004 1.32679608 9.00325914 0 0 Z " fill="#D9D9D9" transform="translate(150,364)"/>
<path d="M0 0 C0.99 0 1.98 0 3 0 C4.98 6.93 6.96 13.86 9 21 C10.68991281 18.46513079 11.48712972 16.84265026 12.3671875 14.0234375 C12.61339844 13.270625 12.85960937 12.5178125 13.11328125 11.7421875 C13.62264766 10.15923342 14.12260768 8.57322276 14.61328125 6.984375 C14.86207031 6.23414063 15.11085938 5.48390625 15.3671875 4.7109375 C15.58487793 4.02306152 15.80256836 3.33518555 16.02685547 2.62646484 C17 1 17 1 19.10205078 0.26806641 C19.72837402 0.17960449 20.35469727 0.09114258 21 0 C18.14674729 8.71827218 15.06687455 17.35518532 12 26 C10.35 26 8.7 26 7 26 C3.96055067 17.40369483 1.26371173 9.07231852 0 0 Z " fill="#DDDDDD" transform="translate(389,364)"/>
<path d="M0 0 C4.62 0 9.24 0 14 0 C14 0.66 14 1.32 14 2 C10.04 2 6.08 2 2 2 C2 4.97 2 7.94 2 11 C5.96 11 9.92 11 14 11 C14 11.66 14 12.32 14 13 C10.04 13 6.08 13 2 13 C2 16.3 2 19.6 2 23 C6.29 23 10.58 23 15 23 C15 23.66 15 24.32 15 25 C10.05 25 5.1 25 0 25 C0 16.75 0 8.5 0 0 Z " fill="#F3F3F3" transform="translate(363,365)"/>
<path d="M0 0 C2.83336529 0.30630976 4.56126519 0.62394159 6.75 2.5 C9.19322336 7.38644673 9.60240776 12.12190523 7.9375 17.3125 C5.49291488 20.70337613 3.8629704 22.31434019 0 24 C-3.45756129 23.73125084 -6.67690064 22.97197373 -10 22 C-10 21.67 -10 21.34 -10 21 C-9.32453125 20.97421875 -8.6490625 20.9484375 -7.953125 20.921875 C-2.44164227 20.57182947 -2.44164227 20.57182947 2.625 18.5625 C4.80373332 14.50213335 4.77963072 10.49786955 4 6 C2.16658535 3.49479421 2.16658535 3.49479421 0 2 C0 1.34 0 0.68 0 0 Z " fill="#D0D0D0" transform="translate(113,366)"/>
<path d="M0 0 C0.66 0.33 1.32 0.66 2 1 C1.01 2.485 1.01 2.485 0 4 C-0.63260039 8.8180611 -0.9769638 13.4218277 1.625 17.625 C4.43326381 19.25083694 6.78470357 19.70770032 10 20 C10 20.66 10 21.32 10 22 C2.75898264 22.61364554 2.75898264 22.61364554 -0.9375 19.625 C-4.78389444 14.72958889 -4.69235778 10.08735347 -4 4 C-2 1.3125 -2 1.3125 0 0 Z " fill="#E2E2E2" transform="translate(248,368)"/>
<path d="M0 0 C0.99 0 1.98 0 3 0 C3 8.58 3 17.16 3 26 C2.01 26 1.02 26 0 26 C0 17.42 0 8.84 0 0 Z " fill="#E4E4E4" transform="translate(135,364)"/>
<path d="M0 0 C1.90722656 0.27026367 1.90722656 0.27026367 4 1 C5.13765215 3.81718597 5.98763753 6.39490527 6.75 9.3125 C6.97042969 10.08529297 7.19085938 10.85808594 7.41796875 11.65429688 C8.43385328 15.32346989 9 18.13562133 9 22 C9.66 22.33 10.32 22.66 11 23 C9.68 23.33 8.36 23.66 7 24 C5.82599412 20.56496228 4.66206791 17.12659286 3.5 13.6875 C3.16613281 12.71103516 2.83226562 11.73457031 2.48828125 10.72851562 C2.17246094 9.79072266 1.85664063 8.85292969 1.53125 7.88671875 C1.23798828 7.02264404 0.94472656 6.15856934 0.64257812 5.26831055 C0 3 0 3 0 0 Z " fill="#D3D3D3" transform="translate(150,364)"/>
<path d="M0 0 C2.64 0 5.28 0 8 0 C8 0.33 8 0.66 8 1 C6.02 1 4.04 1 2 1 C2 8.26 2 15.52 2 23 C4.64 23 7.28 23 10 23 C10 23.66 10 24.32 10 25 C6.7 25 3.4 25 0 25 C0 16.75 0 8.5 0 0 Z " fill="#F7F7F7" transform="translate(328,365)"/>
<path d="M0 0 C2.73370045 2.36092311 3.91097645 4.56538728 5 8 C5 9.32 5 10.64 5 12 C2.03 12 -0.94 12 -4 12 C-3.33501617 7.61110675 -1.81242323 4.0188515 0 0 Z " fill="#161616" transform="translate(191,369)"/>
<path d="M0 0 C0.99 0 1.98 0 3 0 C0.47191206 7.71732109 -2.25027472 15.35945902 -5 23 C-5.99 23 -6.98 23 -8 23 C-6.05797655 14.97928527 -3.33160505 7.54549287 0 0 Z " fill="#D5D5D5" transform="translate(407,364)"/>
<path d="M0 0 C2.08548902 2.51696951 3.91932857 4.84567205 5.4375 7.75 C6.8298915 10.25222911 6.8298915 10.25222911 9.6875 10.8125 C10.450625 10.874375 11.21375 10.93625 12 11 C12 11.99 12 12.98 12 14 C9.234375 14.3046875 9.234375 14.3046875 6 14 C3.953125 11.8828125 3.953125 11.8828125 2.25 9.125 C-0.10577632 5.34839312 -0.10577632 5.34839312 -3 2 C-2.01 2 -1.02 2 0 2 C0 1.34 0 0.68 0 0 Z " fill="#D4D4D4" transform="translate(221,376)"/>
<path d="M0 0 C0.76183594 -0.01417969 1.52367187 -0.02835938 2.30859375 -0.04296875 C4.79597315 0.21137334 6.41058106 0.94732804 8.5625 2.1875 C7.9025 2.8475 7.2425 3.5075 6.5625 4.1875 C4.9125 3.1975 3.2625 2.2075 1.5625 1.1875 C1.5625 3.1675 1.5625 5.1475 1.5625 7.1875 C0.5725 7.1875 -0.4175 7.1875 -1.4375 7.1875 C-1.4375 5.2075 -1.4375 3.2275 -1.4375 1.1875 C-2.22125 1.6825 -3.005 2.1775 -3.8125 2.6875 C-6.4375 4.1875 -6.4375 4.1875 -8.4375 4.1875 C-8.1075 3.1975 -7.7775 2.2075 -7.4375 1.1875 C-4.66697819 0.26399273 -2.87061242 0.02420415 0 0 Z " fill="#D2D2D2" transform="translate(255.4375,210.8125)"/>
<path d="M0 0 C1.890625 0.2265625 1.890625 0.2265625 4 1 C5.046875 2.9609375 5.046875 2.9609375 5.75 5.375 C5.99234375 6.16648437 6.2346875 6.95796875 6.484375 7.7734375 C7 10 7 10 7 13 C6.34 13 5.68 13 5 13 C4.67 13.66 4.34 14.32 4 15 C3.3299166 12.87607494 2.66403203 10.75082476 2 8.625 C1.62875 7.44164062 1.2575 6.25828125 0.875 5.0390625 C0 2 0 2 0 0 Z " fill="#CECECE" transform="translate(278,364)"/>
<path d="M0 0 C0.99 0 1.98 0 3 0 C2.77284483 3.18017243 1.8881484 4.10898361 -0.4375 6.375 C-5.41073107 8.64349136 -8.89948014 7.49185166 -14 6 C-14 5.67 -14 5.34 -14 5 C-13.32453125 4.97421875 -12.6490625 4.9484375 -11.953125 4.921875 C-6.29613659 4.70200545 -6.29613659 4.70200545 -1.5625 1.9375 C-1.046875 1.298125 -0.53125 0.65875 0 0 Z " fill="#D8D8D8" transform="translate(117,382)"/>
<path d="M0 0 C0.33 0.99 0.66 1.98 1 3 C-3.75 7 -3.75 7 -6 7 C-6 6.34 -6 5.68 -6 5 C-7.98 5 -9.96 5 -12 5 C-12 4.67 -12 4.34 -12 4 C-10.7625 3.896875 -9.525 3.79375 -8.25 3.6875 C-4.7207134 3.26198318 -2.62839034 2.51887408 0 0 Z " fill="#CACACA" transform="translate(264,383)"/>
<path d="M0 0 C0.99 0 1.98 0 3 0 C3.66 2.97 4.32 5.94 5 9 C4.34 9 3.68 9 3 9 C2.67 9.66 2.34 10.32 2 11 C1.34 7.37 0.68 3.74 0 0 Z " fill="#CECECE" transform="translate(389,364)"/>
<path d="M0 0 C0.93065133 2.60582371 1.14917407 3.64198224 0.0625 6.25 C-0.4634375 7.11625 -0.4634375 7.11625 -1 8 C-2.32 8 -3.64 8 -5 8 C-5 7.01 -5 6.02 -5 5 C-4.01 5 -3.02 5 -2 5 C-1.7834375 4.0409375 -1.7834375 4.0409375 -1.5625 3.0625 C-1 1 -1 1 0 0 Z " fill="#E9E9E9" transform="translate(291,382)"/>
<path d="M0 0 C0.66 0 1.32 0 2 0 C2.33 1.32 2.66 2.64 3 4 C3.99 3.67 4.98 3.34 6 3 C6 4.32 6 5.64 6 7 C4.35 7 2.7 7 1 7 C0.67 4.69 0.34 2.38 0 0 Z " fill="#E9E9E9" transform="translate(395,383)"/>
<path d="M0 0 C0.99 0 1.98 0 3 0 C2.44271087 3.34373475 1.64826111 6.03312999 0 9 C-0.66 9 -1.32 9 -2 9 C-1.34 6.03 -0.68 3.06 0 0 Z " fill="#D7D7D7" transform="translate(168,364)"/>
<path d="M0 0 C1.98 0.495 1.98 0.495 4 1 C4.33 2.65 4.66 4.3 5 6 C2.03 5.505 2.03 5.505 -1 5 C-0.67 3.35 -0.34 1.7 0 0 Z " fill="#D0D0D0" transform="translate(190,364)"/>
<path d="M0 0 C0.66 0 1.32 0 2 0 C1.67 2.97 1.34 5.94 1 9 C0.01 9 -0.98 9 -2 9 C-1.34 6.03 -0.68 3.06 0 0 Z " fill="#EAEAEA" transform="translate(265,375)"/>
<path d="M0 0 C0.33 0 0.66 0 1 0 C1.33 3.63 1.66 7.26 2 11 C2.99 11 3.98 11 5 11 C4.67 11.66 4.34 12.32 4 13 C3.01 12.67 2.02 12.34 1 12 C-1.028972 7.63771021 -1.10558038 4.64343758 0 0 Z " fill="#353535" transform="translate(256,199)"/>
<path d="M0 0 C0.99 0.33 1.98 0.66 3 1 C4.1875 4.5625 4.1875 4.5625 5 8 C4.01 8 3.02 8 2 8 C0.74335022 5.09399739 0 3.20395416 0 0 Z " fill="#DBDBDB" transform="translate(193,369)"/>
<path d="M0 0 C1.32 0 2.64 0 4 0 C4 2.64 4 5.28 4 8 C0 3.375 0 3.375 0 0 Z " fill="#9A9A9A" transform="translate(253,191)"/>
<path d="M0 0 C1.2077558 3.62326739 0.54311128 4.64146369 -1 8 C-1.99 8 -2.98 8 -4 8 C-3.40138258 5.64828869 -2.73075648 3.3140622 -2 1 C-1.34 0.67 -0.68 0.34 0 0 Z " fill="#DBDBDB" transform="translate(190,368)"/>
<path d="M0 0 C0.66 0 1.32 0 2 0 C1.75 2.875 1.75 2.875 1 6 C-1.0625 7.375 -1.0625 7.375 -3 8 C-1.125 1.125 -1.125 1.125 0 0 Z " fill="#CECECE" transform="translate(297,364)"/>
<path d="M0 0 C1.125 3.75 1.125 3.75 0 6 C-1.32 6 -2.64 6 -4 6 C-4 5.01 -4 4.02 -4 3 C-3.01 3 -2.02 3 -1 3 C-0.67 2.01 -0.34 1.02 0 0 Z " fill="#F1F1F1" transform="translate(162,384)"/>
<path d="M0 0 C0.66 0.33 1.32 0.66 2 1 C1.67 1.99 1.34 2.98 1 4 C-0.65 4.33 -2.3 4.66 -4 5 C-4 4.01 -4 3.02 -4 2 C-2.125 0.9375 -2.125 0.9375 0 0 Z " fill="#CACACA" transform="translate(342,385)"/>
<path d="M0 0 C3.63 0 7.26 0 11 0 C10.67 0.99 10.34 1.98 10 3 C6.7 2.34 3.4 1.68 0 1 C0 0.67 0 0.34 0 0 Z " fill="#B4B4B4" transform="translate(103,387)"/>
<path d="M0 0 C0.66 0.33 1.32 0.66 2 1 C1.67 2.98 1.34 4.96 1 7 C0.01 7 -0.98 7 -2 7 C-1.34 4.69 -0.68 2.38 0 0 Z " fill="#D1D1D1" transform="translate(163,378)"/>
<path d="M0 0 C0.66 0.33 1.32 0.66 2 1 C-0.625 5.875 -0.625 5.875 -4 7 C-3.6875 4.625 -3.6875 4.625 -3 2 C-2.01 1.34 -1.02 0.68 0 0 Z " fill="#ECECEC" transform="translate(248,368)"/>
</svg>
